<svg width="33" height="35" viewBox="0 0 33 35" fill="none" xmlns="http://www.w3.org/2000/svg">
<path fill-rule="evenodd" clip-rule="evenodd" d="M12.8647 7.23068C12.771 6.67443 12.7004 6.12449 12.6547 5.57449C12.586 4.74949 12.6285 3.91818 12.6041 3.09318C12.5935 2.74318 12.5516 1.83069 12.5685 1.69944C12.7216 0.555693 13.6447 0.380672 13.9147 0.349422C14.0453 0.330672 15.3866 0.180739 15.676 1.66824C16.031 3.48699 16.1447 5.31821 16.0191 7.11196C16.3122 8.63696 16.8135 10.1557 17.4754 11.5307C20.1091 16.9994 25.1278 17.5307 30.5653 17.4807C31.4016 17.4682 32.096 18.1244 32.1397 18.9557C32.1835 19.7932 31.561 20.5182 30.7285 20.5932C27.6891 20.8869 22.2966 23.3245 20.4322 25.862C20.0422 26.3932 19.8153 27.6745 19.5153 28.9307C19.0966 30.6745 18.5985 32.3995 18.0404 33.1245C17.9566 33.237 16.9385 34.387 16.6347 34.5557C15.9047 34.9557 15.3204 34.7244 14.9885 34.5119C14.6566 34.2994 14.281 33.8807 14.131 33.1869C13.9741 32.4619 14.1066 30.9744 14.0822 30.6557C13.9935 29.4994 13.7622 27.2307 13.2904 25.2807C13.036 24.2307 12.7647 23.2619 12.316 22.7807C10.6547 20.9994 7.99848 21.262 5.76161 21.5557C5.50473 21.587 5.24786 21.6245 4.99161 21.6557C4.08099 21.9245 3.11409 22.1244 2.09221 22.2432C0.549089 22.4244 0.295356 21.0057 0.281606 20.9119C0.252856 20.7057 0.14597 19.6432 1.30909 19.2182C1.43597 19.1745 2.37223 18.9682 2.73285 18.8869C3.23535 18.7744 3.74347 18.687 4.25347 18.6057C9.52159 16.9682 12.3829 12.3682 12.8647 7.23068ZM14.6729 12.912C16.6616 17.0245 19.6797 19.012 23.2572 19.912C21.0235 21.0807 18.991 22.5432 17.9141 24.012C17.5053 24.5682 17.1304 25.687 16.7922 26.9432C16.6091 25.7745 16.3616 24.5307 16.0347 23.4682C15.6629 22.2557 15.1622 21.2495 14.6035 20.6495C13.5247 19.4932 12.171 18.8495 10.7153 18.5307C12.4578 16.987 13.7791 15.062 14.6729 12.912Z" fill="#181D27"/>
</svg>
