<?xml version="1.0" encoding="UTF-8"?>
<svg version="1.1" xmlns="http://www.w3.org/2000/svg" width="1080" height="378">
<path d="M0 0 C5.72780467 5.02993422 8.59288631 11.20813355 9.23706055 18.7902832 C9.29352525 21.72028335 9.2631118 24.63302749 9.1875 27.5625 C9.16719727 29.07553711 9.16719727 29.07553711 9.14648438 30.61914062 C9.11149576 33.08000621 9.06241158 35.53970335 9 38 C9.70145236 37.99631283 10.40290472 37.99262566 11.12561321 37.98882675 C28.19326372 37.90049051 45.26085617 37.83429765 62.32868481 37.79275131 C70.58256934 37.77212578 78.83630129 37.74400547 87.09008789 37.69824219 C94.28407385 37.658374 101.4779493 37.63256712 108.67204267 37.62364602 C112.48133703 37.61843119 116.29031525 37.60617503 120.09950829 37.57707977 C123.68561112 37.54991068 127.27126786 37.54155784 130.85746384 37.54756927 C132.79960064 37.54594575 134.74168895 37.52443067 136.68370056 37.50231934 C137.84331299 37.50781799 139.00292542 37.51331665 140.19767761 37.51898193 C141.70619183 37.51345118 141.70619183 37.51345118 143.24518108 37.50780869 C146.75957494 38.1357099 148.44123752 39.56327351 151 42 C152.73899832 45.47799665 152.58979036 49.205682 152 53 C149.32629519 56.56493975 147.33489954 58.23802188 143 59 C141.14560825 59.08827313 139.28831447 59.1219928 137.43182373 59.12025452 C136.29882843 59.12162918 135.16583313 59.12300385 133.99850464 59.12442017 C132.75988678 59.12082489 131.52126892 59.11722961 130.24511719 59.11352539 C128.93755463 59.11367142 127.62999207 59.11381744 126.2828064 59.1139679 C122.70049913 59.11425479 119.11822535 59.1083755 115.53592587 59.10139394 C111.79098111 59.09514243 108.04603559 59.09455518 104.30108643 59.09336853 C97.21093558 59.09026052 90.12080015 59.08205426 83.0306561 59.07201904 C74.95816767 59.06084146 66.8856785 59.0553433 58.81318426 59.05032361 C42.20878048 59.03987122 25.60439221 59.02228203 9 59 C9.11423293 62.06324619 9.24097852 65.12510914 9.375 68.1875 C9.4059375 69.05181641 9.436875 69.91613281 9.46875 70.80664062 C9.72231148 77.14565953 9.72231148 77.14565953 12 83 C13.485 83.99 13.485 83.99 15 85 C14.773125 84.319375 14.54625 83.63875 14.3125 82.9375 C13.87288223 78.80509301 14.94666852 76.57677096 17 73 C21.10176794 70.48020525 24.2133497 69.62435742 28.99609375 69.61904907 C30.17365234 69.6105896 31.35121094 69.60213013 32.56445312 69.59341431 C33.84255859 69.599487 35.12066406 69.60555969 36.4375 69.61181641 C37.80794696 69.60774776 39.17839063 69.60240424 40.54882812 69.59588623 C44.25958339 69.58224148 47.97008767 69.58749941 51.68084717 69.59702349 C55.56979026 69.60463487 59.45871229 69.59757037 63.34765625 69.59286499 C69.87764329 69.58741174 76.40752844 69.59458772 82.9375 69.60888672 C90.47998724 69.62521246 98.02223118 69.61992364 105.56471252 69.6034075 C112.04812193 69.58978034 118.53145822 69.58787897 125.01487732 69.59572351 C128.88381944 69.60039328 132.75264731 69.6010441 136.62158203 69.59111404 C140.25947421 69.58242868 143.89705361 69.58849461 147.53491211 69.60579681 C149.50178603 69.61163616 151.46868649 69.6027595 153.43554688 69.59341431 C155.20188477 69.60610352 155.20188477 69.60610352 157.00390625 69.61904907 C158.53253296 69.62074569 158.53253296 69.62074569 160.09204102 69.62247658 C163.5946673 70.0772022 165.98122508 71.18844614 169 73 C171.39074278 76.39331233 171.98961886 78.40827516 172.0625 82.5625 C170.99659093 86.01102935 169.98591379 87.74694922 167.14569283 89.96565056 C162.24469902 92.32821623 156.50043185 91.67833989 151.17944336 91.63110352 C149.76796063 91.63624572 148.35648432 91.64352928 146.94502258 91.65278625 C143.12260715 91.67126898 139.30089104 91.65838282 135.4785049 91.63869596 C131.4743145 91.62228515 127.47016754 91.63112557 123.46595764 91.63621521 C116.74338638 91.64073295 110.02109365 91.62488506 103.29858398 91.59692383 C95.52992568 91.56486016 87.76176931 91.56489363 79.99307531 91.5821386 C72.51364096 91.59800879 65.03439038 91.59126786 57.55496407 91.57420158 C54.37441672 91.56733474 51.19401685 91.56835967 48.0134716 91.57574654 C44.26795381 91.58341468 40.52300652 91.57126684 36.77758598 91.54389763 C34.74970643 91.5337405 32.72175834 91.54319031 30.69387817 91.55322266 C29.48403763 91.5404982 28.27419708 91.52777374 27.0276947 91.5146637 C25.97819106 91.51185678 24.92868742 91.50904985 23.84738064 91.50615788 C20.31398957 90.87805298 18.59987134 89.40954574 16 87 C15.505 88.485 15.505 88.485 15 90 C5.1 90 -4.8 90 -15 90 C-15.99 86.7 -16.98 83.4 -18 80 C-18.94875 80.886875 -19.8975 81.77375 -20.875 82.6875 C-29.59776148 90.12646796 -39.9315914 93.54693392 -51.328125 93.24609375 C-61.09291481 92.34670522 -69.69920398 89.53465467 -76.59375 82.3359375 C-81.49586591 76.09428991 -82.70758733 68.81294348 -82 61 C-80.80790109 52.3870854 -77.92571761 45.81897642 -71.0234375 40.34375 C-61.64022558 34.1124278 -49.90500327 32.85447045 -38.98828125 31.25390625 C-38.13935303 31.12765869 -37.2904248 31.00141113 -36.41577148 30.87133789 C-34.75672388 30.62886538 -33.09606731 30.3970927 -31.43383789 30.17749023 C-27.02599847 29.54249008 -23.58561951 28.85028739 -20 26 C-18.91606959 22.36109078 -18.75538526 19.59555368 -20 16 C-24.9921344 14.3831926 -29.26153769 13.70381065 -34.5625 13.6875 C-35.82191406 13.67074219 -37.08132813 13.65398437 -38.37890625 13.63671875 C-42.49419944 14.04957988 -44.65476134 14.54619941 -48 17 C-49.98 21.455 -49.98 21.455 -52 26 C-60.58 26 -69.16 26 -78 26 C-79.76707246 22.46585508 -78.04746387 18.85110283 -77.0703125 15.17578125 C-74.35786906 7.12754579 -69.39093398 1.16533736 -62 -3 C-44.63521512 -10.80664681 -16.18670134 -11.89387787 0 0 Z M-23.125 45.3125 C-28.83182515 47.06401838 -34.61527432 48.12485992 -40.484375 49.15625 C-45.18043843 50.28330522 -48.77226702 51.90150207 -52.375 55.125 C-54.6394231 59.13128703 -54.80893543 62.49774323 -54 67 C-52.22432699 70.09098636 -50.80656876 71.52950156 -47.75 73.3125 C-39.89961214 75.27509697 -33.10849499 73.66820047 -26 70 C-21.29857125 66.39214414 -19.22929393 62.1924048 -18.234375 56.421875 C-17.83310514 52.27541982 -17.84369242 48.15951842 -18 44 C-19.77591096 44 -21.4470763 44.77257406 -23.125 45.3125 Z " fill="#FF7100" transform="translate(802,177)"/>
<path d="M0 0 C9.24 0 18.48 0 28 0 C28 42.57 28 85.14 28 129 C19.09 129 10.18 129 1 129 C0.67 125.7 0.34 122.4 0 119 C-1.5159375 120.60875 -1.5159375 120.60875 -3.0625 122.25 C-10.35039242 129.47947244 -18.16910469 131.97681929 -28.3125 132.3125 C-38.63681132 132.06702686 -46.8861739 129.35205908 -55 123 C-55.84691406 122.37931641 -55.84691406 122.37931641 -56.7109375 121.74609375 C-65.74703763 114.79701167 -70.02126452 103.97102885 -72 93 C-72.29237344 89.59912597 -72.33428103 86.22465378 -72.3125 82.8125 C-72.30686035 81.88775879 -72.3012207 80.96301758 -72.29541016 80.01025391 C-72.04140322 65.61233601 -68.26960896 52.51412346 -58 42 C-47.49738415 32.63025058 -35.63744966 30.18398545 -21.94433594 30.82080078 C-13.92295044 31.5600897 -6.60159355 36.39840645 -1 42 C-0.67 28.14 -0.34 14.28 0 0 Z M-36 58 C-42.54020096 66.04607115 -44.90968008 75.7806153 -44 86 C-43.05671201 94.29030573 -40.61040975 100.57011073 -34.5 106.375 C-28.50912507 110.2690687 -23.00558649 110.78604056 -16 110 C-10.13378103 108.25892995 -6.42493289 105.08847172 -3 100 C1.8088021 90.21065287 2.2808558 78.37590851 -1 68 C-3.94775299 61.63285353 -8.30677963 56.55917249 -15 54 C-22.63953831 52.20246157 -29.58493965 53.48569828 -36 58 Z " fill="#6F411E" transform="translate(679,138)"/>
<path d="M0 0 C5.59491004 4.84810586 7.34295107 10.85824521 8 18 C8.18540864 22.63961229 8.23234397 27.27906786 8.28125 31.921875 C8.29931654 33.2723257 8.31792079 34.6227693 8.33703613 35.97320557 C8.4064433 40.95697529 8.4663353 45.94085004 8.52606201 50.92474365 C8.57702983 55.15150879 8.63182841 59.37818934 8.69187927 63.60483551 C8.71839543 65.58292438 8.73918043 67.56108739 8.7598877 69.53924561 C8.77660522 70.73769104 8.79332275 71.93613647 8.81054688 73.17089844 C8.82933899 74.75472321 8.82933899 74.75472321 8.84851074 76.37054443 C8.89149986 79.10973092 8.89149986 79.10973092 10 82 C11.99665314 83.68538601 11.99665314 83.68538601 14 85 C13.505 86.98 13.505 86.98 13 89 C3.43 89 -6.14 89 -16 89 C-16.99 86.03 -17.98 83.06 -19 80 C-20.01707031 80.68835938 -20.01707031 80.68835938 -21.0546875 81.390625 C-32.80049937 89.13440125 -43.7927232 93.72195138 -58 91.5390625 C-66.23213687 89.75403282 -72.41255824 86.58744176 -78.375 80.625 C-83.53553736 72.28874734 -84.1976343 64.05633184 -82.56640625 54.4453125 C-80.58220237 47.32189732 -75.9179304 41.55106657 -69.625 37.6875 C-59.83069002 33.12807984 -49.73349644 31.70802491 -39.12744141 30.19775391 C-37.06785563 29.90148271 -35.01057404 29.59196243 -32.953125 29.28125 C-31.73786133 29.10658203 -30.52259766 28.93191406 -29.27050781 28.75195312 C-25.9450221 27.98735951 -23.74299583 27.0083273 -21 25 C-20.11613086 22.27702426 -20.36253857 19.77585478 -21 17 C-23.97164812 13.82341063 -27.06291316 13.05659526 -31.36328125 12.796875 C-32.66652344 12.78140625 -33.96976562 12.7659375 -35.3125 12.75 C-37.25576172 12.71132812 -37.25576172 12.71132812 -39.23828125 12.671875 C-43.44662766 13.03895818 -45.59668212 13.48471288 -49 16 C-50.98 20.455 -50.98 20.455 -53 25 C-61.91 25 -70.82 25 -80 25 C-78.63605701 12.72451308 -76.30529051 6.16672777 -67 -2 C-48.1998079 -13.89569677 -18.20546179 -11.70148246 0 0 Z M-24.4375 44.25 C-30.04644889 46.17099703 -35.8068155 47.32181315 -41.61499023 48.46582031 C-45.92425784 49.359019 -49.41922366 50.28912978 -53 53 C-55.55379817 57.1190293 -56.35434119 59.86877855 -55.6875 64.6875 C-54.96011226 67.30252588 -54.39261966 68.65121199 -52.35546875 70.4609375 C-46.93650029 73.4750383 -41.67743087 73.81442251 -35.70703125 72.4921875 C-29.16687722 70.58601195 -24.9167481 67.93901375 -21.125 62.125 C-18.88097677 56.25904454 -19.78489666 49.19019603 -20 43 C-21.45298755 42.94304282 -21.45298755 42.94304282 -24.4375 44.25 Z " fill="#FF6D00" transform="translate(380,178)"/>
<path d="M0 0 C5.47847991 4.92433482 8.5955486 10.68670871 9.28807068 18.07214355 C9.40906423 21.76142186 9.4410764 25.44154679 9.44140625 29.1328125 C9.45320003 30.4970744 9.46656909 31.86132349 9.48143005 33.22555542 C9.51741866 36.7971704 9.53775909 40.36867183 9.55297852 43.94042969 C9.57791942 49.66276784 9.61769541 55.38485527 9.67487907 61.1069603 C9.69110132 63.09543558 9.694618 65.08400152 9.69789124 67.07254028 C9.71317116 68.89505814 9.71317116 68.89505814 9.72875977 70.75439453 C9.73517235 72.35034958 9.73517235 72.35034958 9.74171448 73.97854614 C10.025751 77.30123821 10.68801542 79.934923 12 83 C13.485 83.99 13.485 83.99 15 85 C15 86.65 15 88.3 15 90 C5.1 90 -4.8 90 -15 90 C-15.99 86.7 -16.98 83.4 -18 80 C-18.94875 80.886875 -19.8975 81.77375 -20.875 82.6875 C-29.59604055 90.1250003 -39.92949439 93.54735396 -51.32421875 93.24609375 C-62.01963255 92.26242796 -69.73567116 88.96665823 -76.875 80.9375 C-81.58175895 74.43109792 -82.41563815 67.23396192 -81.7890625 59.34375 C-80.50783803 51.51135892 -77.41487602 45.66695391 -71.1875 40.6875 C-61.7079052 34.19222208 -50.12789627 32.88288658 -38.98046875 31.25 C-38.13266846 31.12431641 -37.28486816 30.99863281 -36.41137695 30.86914062 C-34.75389031 30.62791242 -33.09486211 30.3969909 -31.43432617 30.17773438 C-26.61143488 29.48257946 -22.58972432 28.58972432 -19 25 C-19 21.91075331 -19.02607117 19.85303857 -20 17 C-26.0175082 12.41523185 -34.78465765 13.20607884 -42 14 C-45.31481742 14.79534308 -45.31481742 14.79534308 -48 17 C-49.98 21.455 -49.98 21.455 -52 26 C-60.58 26 -69.16 26 -78 26 C-78 16.10821703 -76.05514413 9.08598547 -69.171875 1.8203125 C-52.65262952 -12.0249544 -17.68614719 -13.03869245 0 0 Z M-23.125 45.3125 C-27.58993261 46.69175361 -32.02353784 47.56974412 -36.625 48.375 C-42.54422944 49.51216238 -47.46473112 50.902016 -52 55 C-54.69080456 59.03620685 -54.66642423 62.26005764 -54 67 C-52.10035183 70.43397938 -50.72962839 71.65950675 -47.1875 73.3125 C-39.40336772 74.99143049 -33.03007226 73.58914834 -26 70 C-21.69231696 66.62393889 -19.30330554 62.69579215 -18.234375 57.265625 C-17.77727783 52.84701904 -17.85327284 48.43442072 -18 44 C-19.77591096 44 -21.4470763 44.77257406 -23.125 45.3125 Z " fill="#FF6E00" transform="translate(585,177)"/>
<path d="M0 0 C8.58 0 17.16 0 26 0 C26.33 20.46 26.66 40.92 27 62 C31.455 57.05 31.455 57.05 36 52 C40.125 47.875 40.125 47.875 42.08984375 45.94140625 C44.60622602 43.38385617 46.94121092 40.69212112 49.26171875 37.95703125 C50.12216797 36.98830078 50.12216797 36.98830078 51 36 C51.71091797 35.14470703 52.42183594 34.28941406 53.15429688 33.40820312 C56.77164979 30.34698408 58.5865091 30.41536027 63.26953125 30.51171875 C64.29103523 30.52233086 64.29103523 30.52233086 65.33317566 30.53315735 C67.49409995 30.56099931 69.65236822 30.62370473 71.8125 30.6875 C73.28316552 30.71259668 74.75387193 30.73540747 76.22460938 30.75585938 C79.81725957 30.81078812 83.40837028 30.89698353 87 31 C85.15269107 35.01143725 82.50538277 37.75905444 79.375 40.8125 C78.83375488 41.3472998 78.29250977 41.88209961 77.73486328 42.43310547 C74.27520113 45.8268889 70.71601825 49.05974609 67.0234375 52.19921875 C62.82722894 55.93368235 58.93415488 59.99328899 55 64 C56.31519205 67.56230739 57.8873659 70.58428707 59.984375 73.74609375 C60.5834668 74.65560791 61.18255859 75.56512207 61.79980469 76.50219727 C62.44336914 77.47084717 63.08693359 78.43949707 63.75 79.4375 C65.10512967 81.49676244 66.45927062 83.5566758 67.8125 85.6171875 C68.85083984 87.1964502 68.85083984 87.1964502 69.91015625 88.80761719 C73.22458249 93.87063558 76.49392886 98.96181182 79.75 104.0625 C80.33362305 104.9712085 80.91724609 105.87991699 81.51855469 106.81616211 C82.06415039 107.67218018 82.60974609 108.52819824 83.171875 109.41015625 C83.8848877 110.52596069 83.8848877 110.52596069 84.61230469 111.66430664 C86.22350928 114.37619868 87.61765408 117.16568077 89 120 C62.63028536 122.99435432 62.63028536 122.99435432 55.51513672 118.39306641 C51.56750387 114.0973824 49.34411575 108.96578025 47.15185547 103.61376953 C45.30757515 99.42876208 42.77600468 95.7355521 40.25 91.9375 C36 85.33395853 36 85.33395853 36 83 C34.68712379 84.14540225 33.37470979 85.29133433 32.0625 86.4375 C31.33160156 87.07558594 30.60070312 87.71367187 29.84765625 88.37109375 C27.19855068 90.45258034 27.19855068 90.45258034 26.79467773 93.77563477 C26.75802002 94.98533936 26.7213623 96.19504395 26.68359375 97.44140625 C26.64169922 98.74658203 26.59980469 100.05175781 26.55664062 101.39648438 C26.51682392 102.7851533 26.47711175 104.17382522 26.4375 105.5625 C26.39432011 106.95509183 26.350706 108.34767028 26.30664062 109.74023438 C26.20014194 113.16002549 26.09952944 116.57999896 26 120 C17.42 120 8.84 120 0 120 C0 80.4 0 40.8 0 0 Z " fill="#FF6C00" transform="translate(140,147)"/>
<path d="M0 0 C0.82886719 0.598125 1.65773438 1.19625 2.51171875 1.8125 C5.24073065 4.21163134 6.56454954 6.26280123 8.1875 9.5 C8.92033203 10.90765625 8.92033203 10.90765625 9.66796875 12.34375 C11 16 11 16 13 28 C3.76 28 -5.48 28 -15 28 C-16.65 24.7 -18.3 21.4 -20 18 C-25.9855455 13.51084087 -30.73561493 13.43719255 -38 14 C-42.99796394 15.66598798 -46.28863227 18.50989812 -49 23 C-53.76785213 32.66920412 -53.53861635 46.4686469 -50.8125 56.75 C-49.00835435 61.66269708 -46.56348543 65.71604357 -41.73828125 68.1328125 C-35.43994242 70.12743621 -28.38772833 70.07036098 -22.375 67.375 C-18.44887767 63.44887767 -17.04493149 59.11232873 -15 54 C-5.76 54 3.48 54 13 54 C10.25097867 67.74510666 5.48170573 77.42153782 -6.203125 85.35546875 C-20.23302259 93.60489177 -37.36279321 93.86255632 -52.84765625 90.03125 C-63.62857351 86.50440718 -71.27806631 79.23805966 -76.8125 69.4375 C-83.74654931 54.39810926 -83.4571599 36.6715649 -79 21 C-74.06786019 7.95224831 -66.43221445 -0.19667824 -53.828125 -6 C-37.67517905 -12.51126503 -13.88742974 -10.90702244 0 0 Z " fill="#FF6E00" transform="translate(483,178)"/>
<path d="M0 0 C1.17755859 -0.00845947 2.35511719 -0.01691895 3.56835938 -0.02563477 C5.48551758 -0.01652573 5.48551758 -0.01652573 7.44140625 -0.00723267 C8.81185321 -0.01130131 10.18229688 -0.01664483 11.55273438 -0.02316284 C15.26348964 -0.03680759 18.97399392 -0.03154967 22.68475342 -0.02202559 C26.57369651 -0.0144142 30.46261854 -0.0214787 34.3515625 -0.02618408 C40.88154954 -0.03163734 47.41143469 -0.02446135 53.94140625 -0.01016235 C61.48389349 0.00616338 69.02613743 0.00087457 76.56861877 -0.01564157 C83.05202818 -0.02926873 89.53536447 -0.0311701 96.01878357 -0.02332556 C99.88772569 -0.01865579 103.75655356 -0.01800497 107.62548828 -0.02793503 C111.26338046 -0.03662039 114.90095986 -0.03055446 118.53881836 -0.01325226 C120.50569228 -0.00741292 122.47259274 -0.01628958 124.43945312 -0.02563477 C126.20579102 -0.01294556 126.20579102 -0.01294556 128.0078125 0 C129.53643921 0.00169662 129.53643921 0.00169662 131.09594727 0.00342751 C134.59857355 0.45815313 136.98513133 1.56939707 140.00390625 3.38095093 C142.39464903 6.77426326 142.99352511 8.78922609 143.06640625 12.94345093 C142.0003181 16.39255964 140.98911834 18.12666457 138.14862061 20.34562302 C133.25290392 22.70895504 127.51636719 22.06883224 122.19921875 22.02792358 C120.7893562 22.03470432 119.37950252 22.04361002 117.96966553 22.05447388 C114.15133596 22.07722031 110.33368374 22.0684507 106.51534271 22.05257845 C102.5142793 22.03989505 98.51327279 22.05166632 94.51220703 22.05950928 C87.79383969 22.06859878 81.07574742 22.05663646 74.35742188 22.0328064 C66.59666716 22.00559622 58.83656926 22.01441089 51.07583046 22.04193842 C44.40555015 22.0646486 37.73546725 22.06782033 31.06516075 22.05474508 C27.08436699 22.04696096 23.10388169 22.04588006 19.12310791 22.06242752 C15.37996009 22.07690112 11.63765676 22.0667993 7.89459991 22.03795624 C5.87047986 22.02822123 3.84628815 22.04302102 1.82220459 22.05859375 C-8.09487631 21.94315421 -8.09487631 21.94315421 -11.79248047 19.02020264 C-14.39400275 15.90437819 -15.07719057 14.43579187 -14.99609375 10.38095093 C-13.78371075 6.17326875 -13.03067356 4.01504162 -9.24975586 1.69772911 C-5.87838743 0.33331442 -3.61295224 0.00401 0 0 Z " fill="#1BA404" transform="translate(830.99609375,246.61904907226563)"/>
<path d="M0 0 C0 7.92 0 15.84 0 24 C-2.124375 24.0825 -4.24875 24.165 -6.4375 24.25 C-13.98675014 24.79959152 -19.67862319 26.10444073 -25.4375 31.125 C-29.40797748 38.43067857 -29.31785888 47.12546163 -29.4140625 55.2578125 C-29.43342865 56.28687714 -29.4527948 57.31594177 -29.4727478 58.37619019 C-29.53197495 61.6257122 -29.57869932 64.87527075 -29.625 68.125 C-29.66323221 70.34376446 -29.7022869 72.56251491 -29.7421875 74.78125 C-29.8391592 80.18742229 -29.91917849 85.59346631 -30 91 C-38.58 91 -47.16 91 -56 91 C-56 61.63 -56 32.26 -56 2 C-47.75 2 -39.5 2 -31 2 C-30.67 5.96 -30.34 9.92 -30 14 C-28.948125 12.7625 -27.89625 11.525 -26.8125 10.25 C-18.39360983 0.70071776 -13.14977043 0 0 0 Z " fill="#FF6C00" transform="translate(292,176)"/>
<path d="M0 0 C30.36 0 60.72 0 92 0 C92 0.99 92 1.98 92 3 C91.40610977 2.99555878 90.81221954 2.99111755 90.20033264 2.98654175 C83.98668844 2.94209524 77.77308983 2.91204548 71.55932617 2.89013672 C69.24420333 2.88011524 66.92909302 2.86649443 64.61401367 2.84912109 C61.27519626 2.82470298 57.93654706 2.81347805 54.59765625 2.8046875 C53.57229263 2.79436493 52.54692902 2.78404236 51.49049377 2.77340698 C43.92656308 2.77224144 35.78216924 3.30063496 29 7 C27.94662186 8.84028523 27.94662186 8.84028523 27 11 C26.65839844 11.69738281 26.31679688 12.39476562 25.96484375 13.11328125 C21.18046189 23.35513292 20.68847177 34.19034825 24 45 C26.55864393 50.61936139 29.56077364 53.94043517 35 57 C35.94875 57.5775 36.8975 58.155 37.875 58.75 C38.926875 59.36875 38.926875 59.36875 40 60 C30.3 71.56666667 30.3 71.56666667 26 73 C25.566875 73.99 25.566875 73.99 25.125 75 C24 77 24 77 21.70703125 77.7890625 C18.33851354 78.0515444 17.26826483 77.33318275 14.5625 75.375 C13.78519531 74.81425781 13.00789062 74.25351562 12.20703125 73.67578125 C11.47871094 73.12277344 10.75039063 72.56976563 10 72 C9.42636719 71.58105469 8.85273437 71.16210938 8.26171875 70.73046875 C-0.75155647 63.76672382 -5.02206794 52.9665743 -7 42 C-7.292375 38.59910779 -7.33366455 35.22466101 -7.3125 31.8125 C-7.30831055 30.88993408 -7.30412109 29.96736816 -7.29980469 29.0168457 C-7.11909302 18.03092182 -4.97926366 9.95852731 0 0 Z " fill="#AD6228" transform="translate(614,189)"/>
<path d="M0 0 C9.24 0 18.48 0 28 0 C28 15.51 28 31.02 28 47 C-1.37 47 -30.74 47 -61 47 C-57.17769479 39.35538958 -50.07307936 35.61965902 -42.26171875 32.7265625 C-32.76695521 29.67643121 -21.32482186 29.40312978 -12.19140625 33.71484375 C-8.18878728 36.0621907 -4.29269511 38.70730489 -1 42 C-0.67 28.14 -0.34 14.28 0 0 Z " fill="#F96E01" transform="translate(679,138)"/>
<path d="M0 0 C0.82975342 -0.00832352 1.65950684 -0.01664703 2.5144043 -0.02522278 C5.25590718 -0.04930742 7.99717209 -0.0580928 10.73876953 -0.06469727 C12.64682079 -0.07366446 14.55487133 -0.08278632 16.46292114 -0.09205627 C20.46260283 -0.10854443 24.46220082 -0.11624613 28.46191406 -0.11914062 C33.58228629 -0.12452557 38.70187004 -0.16221097 43.82201958 -0.20788479 C47.76318217 -0.23765406 51.70415482 -0.24486415 55.64542007 -0.24586678 C57.53285459 -0.250069 59.42028968 -0.2625034 61.30761337 -0.28338432 C63.95045419 -0.31029761 66.59146626 -0.30547417 69.234375 -0.29296875 C70.39883652 -0.31522018 70.39883652 -0.31522018 71.58682251 -0.33792114 C77.27753504 -0.26139827 79.76817193 1.23009598 83.74658203 5.30639648 C85.00078377 7.99619277 85.09146521 10.36914139 84.74658203 13.30639648 C83.11894688 16.68686949 81.93411875 18.67161922 78.59912109 20.45428467 C74.95288232 21.54349084 71.49974058 21.58577831 67.73095703 21.56518555 C66.93846558 21.56869019 66.14597412 21.57219482 65.32946777 21.57580566 C62.71841589 21.58458454 60.10763652 21.57878745 57.49658203 21.57202148 C55.67724557 21.57336924 53.85790945 21.5753107 52.03857422 21.57781982 C48.22896896 21.58076588 44.41945761 21.57649011 40.60986328 21.56713867 C35.73069789 21.55574446 30.85175254 21.5623067 25.97259521 21.5742836 C22.21678006 21.58151619 18.46101693 21.57920783 14.7052002 21.57402802 C12.90629042 21.57269539 11.1073759 21.57432566 9.30847168 21.57898712 C6.79292313 21.58407532 4.27772923 21.57630995 1.76220703 21.56518555 C1.02127808 21.56923401 0.28034912 21.57328247 -0.48303223 21.57745361 C-5.93379312 21.53287703 -9.56657035 20.90206315 -13.56591797 17.11889648 C-15.72230098 13.5249248 -15.77007747 11.43967249 -15.25341797 7.30639648 C-14.04490197 4.58723548 -13.10196716 2.9014957 -10.65988159 1.18882751 C-7.14820553 -0.09887611 -3.69296088 0.0031455 0 0 Z " fill="#81726E" transform="translate(833.25341796875,182.693603515625)"/>
<path d="M0 0 C1.32 0.99 2.64 1.98 4 3 C4.66 2.34 5.32 1.68 6 1 C6.495 2.98 6.495 2.98 7 5 C14.26 5 21.52 5 29 5 C29 14.9 29 24.8 29 35 C20.09 35 11.18 35 2 35 C1.67 31.7 1.34 28.4 1 25 C-0.010625 26.0725 -1.02125 27.145 -2.0625 28.25 C-9.41218485 35.54076954 -17.26838179 38.02136049 -27.5 38.25 C-32.56698414 38.16424004 -37.10615027 37.28363272 -42 36 C-38.75392159 30.83031957 -35.27893997 26.73633521 -30.375 23 C-27.86373249 21.15738604 -27.86373249 21.15738604 -26.73828125 18.43359375 C-25 16 -25 16 -22.14453125 15.28515625 C-20.49517578 15.17494141 -20.49517578 15.17494141 -18.8125 15.0625 C-12.44450755 14.28954769 -8.30065122 12.86068689 -4 8 C-2.34110264 5.37223096 -1.19577303 2.88978481 0 0 Z " fill="#DD6303" transform="translate(678,232)"/>
<path d="M0 0 C9.24 0 18.48 0 28 0 C28.23176926 4.2388022 28.42972775 8.45517701 28.54931641 12.6953125 C28.59917693 14.13129553 28.66710433 15.5667821 28.75439453 17.00097656 C29.46066189 28.91612237 29.46066189 28.91612237 25.72949219 34.23925781 C23.26393588 36.70481412 20.78959914 38.91236087 18 41 C14.0546221 39.18690351 11.40904697 36.60388307 8.4375 33.5 C5.75088887 30.71628244 3.24160167 28.16106778 0 26 C-0.34057617 23.38623047 -0.34057617 23.38623047 -0.29296875 20.1171875 C-0.28547607 19.06644043 -0.2779834 18.01569336 -0.27026367 16.93310547 C-0.24295166 15.59393066 -0.21563965 14.25475586 -0.1875 12.875 C-0.0946875 6.501875 -0.0946875 6.501875 0 0 Z " fill="#020101" transform="translate(679,138)"/>
<path d="M0 0 C1.65 0 3.3 0 5 0 C5 0.66 5 1.32 5 2 C5.79664063 1.91878906 6.59328125 1.83757812 7.4140625 1.75390625 C16.00958919 1.24152084 16.00958919 1.24152084 18.8515625 3.41796875 C19.7895427 4.64677522 20.69215685 5.90333624 21.55859375 7.18359375 C23.68479831 9.86295722 26.26358117 10.87095512 29.36328125 12.17578125 C31 13 31 13 32 15 C30.33333333 16.66666667 28.66666667 18.33333333 27 20 C26.154375 20.886875 25.30875 21.77375 24.4375 22.6875 C22 25 22 25 19.8125 26.0625 C17.80534791 26.86385972 17.80534791 26.86385972 17.0625 29.0625 C16 31 16 31 13.7109375 31.78515625 C10.33828446 32.05244143 9.27155344 31.33556274 6.5625 29.375 C5.39654297 28.53388672 5.39654297 28.53388672 4.20703125 27.67578125 C3.47871094 27.12277344 2.75039063 26.56976563 2 26 C1.42636719 25.58105469 0.85273437 25.16210938 0.26171875 24.73046875 C-6.73744171 19.32284865 -10.29126102 12.27754314 -13 4 C-13 3.34 -13 2.68 -13 2 C-8.71 2 -4.42 2 0 2 C0 1.34 0 0.68 0 0 Z " fill="#DD6202" transform="translate(622,235)"/>
<path d="M0 0 C0.37616455 0.48895752 0.7523291 0.97791504 1.13989258 1.48168945 C3.72837959 3.594539 5.45199055 3.3433707 8.76171875 3.29296875 C9.87998047 3.28330078 10.99824219 3.27363281 12.15039062 3.26367188 C13.31763672 3.23853516 14.48488281 3.21339844 15.6875 3.1875 C17.45577148 3.16719727 17.45577148 3.16719727 19.25976562 3.14648438 C22.17363411 3.11109326 25.08658945 3.06171809 28 3 C27.9836853 4.20257446 27.9836853 4.20257446 27.96704102 5.42944336 C27.95858154 6.49300049 27.95012207 7.55655762 27.94140625 8.65234375 C27.92509155 10.22616821 27.92509155 10.22616821 27.90844727 11.83178711 C28.06990024 17.41892093 29.23724118 22.71172355 31 28 C27.04 28 23.08 28 19 28 C19 27.34 19 26.68 19 26 C18.01 26.33 17.02 26.66 16 27 C15.34 26.67 14.68 26.34 14 26 C14 26.66 14 27.32 14 28 C9.71 28 5.42 28 1 28 C-1.25188608 21.24434176 -1.25188608 21.24434176 -1.23046875 16.85546875 C-1.22853516 15.93185547 -1.22660156 15.00824219 -1.22460938 14.05664062 C-1.21236328 13.10982422 -1.20011719 12.16300781 -1.1875 11.1875 C-1.1865332 9.73827148 -1.1865332 9.73827148 -1.18554688 8.25976562 C-1.14052002 1.14052002 -1.14052002 1.14052002 0 0 Z " fill="#DA8543" transform="translate(608,209)"/>
<path d="M0 0 C0.33 0 0.66 0 1 0 C1 14.19 1 28.38 1 43 C-6.26 43 -13.52 43 -21 43 C-22.12520661 37.37396694 -22.12520661 37.37396694 -20.33203125 34.27734375 C-19.93878662 33.58302246 -19.54554199 32.88870117 -19.14038086 32.17333984 C-18.70218018 31.4355127 -18.26397949 30.69768555 -17.8125 29.9375 C-17.36849854 29.16615723 -16.92449707 28.39481445 -16.46704102 27.60009766 C-14.99472884 25.0565734 -13.49900646 22.52787424 -12 20 C-11.45891602 19.07815918 -10.91783203 18.15631836 -10.36035156 17.20654297 C-8.72688047 14.42485188 -7.08499599 11.64840537 -5.4375 8.875 C-4.91325439 7.99191162 -4.38900879 7.10882324 -3.84887695 6.19897461 C-3.3612085 5.38823486 -2.87354004 4.57749512 -2.37109375 3.7421875 C-1.93724365 3.0188623 -1.50339355 2.29553711 -1.05639648 1.55029297 C-0.53348022 0.78289795 -0.53348022 0.78289795 0 0 Z " fill="#A2612D" transform="translate(706,194)"/>
<path d="M0 0 C29.7 0 59.4 0 90 0 C90 2.97 90 5.94 90 9 C75.81 8.67 61.62 8.34 47 8 C47 7.67 47 7.34 47 7 C60.86 7 74.72 7 89 7 C89 6.01 89 5.02 89 4 C58.97 4 28.94 4 -2 4 C-1.34 2.68 -0.68 1.36 0 0 Z " fill="#723C13" transform="translate(617,185)"/>
<path d="M0 0 C2.93230193 1.32120828 4.98664899 2.74638197 7.234375 5.0390625 C7.80800781 5.61914062 8.38164063 6.19921875 8.97265625 6.796875 C9.55917969 7.40015625 10.14570312 8.0034375 10.75 8.625 C11.35199219 9.23601562 11.95398438 9.84703125 12.57421875 10.4765625 C14.05405305 11.97988624 15.52764676 13.48934856 17 15 C10.19307361 20.55822848 1.4795456 20.63081026 -7 20 C-10.06887582 19.48481969 -12.98496328 18.7908293 -16 18 C-12.72694661 12.78735942 -9.18077614 8.72433462 -4.3125 4.875 C-1.80846331 3.03438927 -1.80846331 3.03438927 0 0 Z " fill="#020100" transform="translate(652,250)"/>
<path d="M0 0 C8.25 0 16.5 0 25 0 C23.875 9 23.875 9 20 14 C14.555 13.505 14.555 13.505 9 13 C9.33 13.66 9.66 14.32 10 15 C11.89533342 15.46523063 11.89533342 15.46523063 14.0625 15.625 C15.361875 15.74875 16.66125 15.8725 18 16 C18 16.33 18 16.66 18 17 C14.04 17.495 14.04 17.495 10 18 C0 3.3 0 3.3 0 0 Z " fill="#2A1E15" transform="translate(611,212)"/>
<path d="M0 0 C30.36 0 60.72 0 92 0 C92 0.99 92 1.98 92 3 C61.31 3 30.62 3 -1 3 C-0.67 2.01 -0.34 1.02 0 0 Z " fill="#FE7000" transform="translate(614,189)"/>
<path d="M0 0 C1.62109375 1.64453125 1.62109375 1.64453125 3.4375 3.8125 C5.90218632 6.77987531 5.90218632 6.77987531 8.72265625 9.38671875 C10 11 10 11 10 17 C1.09 17 -7.82 17 -17 17 C-15.37782461 13.75564922 -14.45544522 12.20030809 -12.03125 9.765625 C-11.17466797 8.90517578 -11.17466797 8.90517578 -10.30078125 8.02734375 C-9.70652344 7.44082031 -9.11226562 6.85429687 -8.5 6.25 C-7.90574219 5.64800781 -7.31148437 5.04601562 -6.69921875 4.42578125 C-6.12816406 3.85730469 -5.55710937 3.28882813 -4.96875 2.703125 C-4.44732422 2.18395508 -3.92589844 1.66478516 -3.38867188 1.12988281 C-2 0 -2 0 0 0 Z " fill="#030201" transform="translate(697,250)"/>
<path d="M0 0 C2.42044638 2.22989494 4.02332389 4.49731254 5.6640625 7.34375 C6.38722656 8.59478516 6.38722656 8.59478516 7.125 9.87109375 C7.8675 11.17240234 7.8675 11.17240234 8.625 12.5 C9.12773438 13.36753906 9.63046875 14.23507813 10.1484375 15.12890625 C13.86335621 21.59006863 13.86335621 21.59006863 15 25 C10.71 25 6.42 25 2 25 C-0.25 18.25 -0.25 18.25 -0.1953125 14.2578125 C-0.18886719 13.41992188 -0.18242188 12.58203125 -0.17578125 11.71875 C-0.15902344 10.8628125 -0.14226563 10.006875 -0.125 9.125 C-0.11597656 8.24585938 -0.10695313 7.36671875 -0.09765625 6.4609375 C-0.07424577 4.3071729 -0.0383801 2.15354986 0 0 Z " fill="#3A2616" transform="translate(607,212)"/>
<path d="M0 0 C1.32 0.99 2.64 1.98 4 3 C4.66 2.34 5.32 1.68 6 1 C6.33 2.32 6.66 3.64 7 5 C14.26 5 21.52 5 29 5 C29 6.65 29 8.3 29 10 C17.78 10 6.56 10 -5 10 C-3.35 6.7 -1.7 3.4 0 0 Z " fill="#F26F08" transform="translate(678,232)"/>
<path d="M0 0 C0.84498047 0.01804688 1.68996094 0.03609375 2.56054688 0.0546875 C4.64501573 0.10179414 6.72890144 0.17353767 8.8125 0.25 C8.8125 3.22 8.8125 6.19 8.8125 9.25 C1.5525 9.25 -5.7075 9.25 -13.1875 9.25 C-11.34641189 0.04455945 -8.65912378 -0.34824009 0 0 Z " fill="#342417" transform="translate(698.1875,227.75)"/>
<path d="M0 0 C13.2 0 26.4 0 40 0 C39.07377893 3.70488428 38.32789515 5.16604069 36 8 C36 7.01 36 6.02 36 5 C35.12263184 5.02094727 34.24526367 5.04189453 33.34130859 5.06347656 C30.06483317 5.131926 26.78912488 5.18193051 23.51220703 5.21972656 C22.09802205 5.23975843 20.68391903 5.26699248 19.27001953 5.30175781 C17.22928581 5.35065489 15.1896531 5.37305123 13.1484375 5.390625 C11.92302246 5.41157227 10.69760742 5.43251953 9.43505859 5.45410156 C5.36005153 4.91540127 3.18536394 3.54268676 0 1 C0 0.67 0 0.34 0 0 Z " fill="#8F582D" transform="translate(666,193)"/>
<path d="M0 0 C1.65 0 3.3 0 5 0 C5 0.66 5 1.32 5 2 C5.83144531 1.94199219 6.66289063 1.88398438 7.51953125 1.82421875 C9.14955078 1.75654297 9.14955078 1.75654297 10.8125 1.6875 C11.89144531 1.62949219 12.97039063 1.57148438 14.08203125 1.51171875 C15.04496094 1.67285156 16.00789062 1.83398438 17 2 C17.99 3.65 18.98 5.3 20 7 C9.44 7 -1.12 7 -12 7 C-12.33 5.35 -12.66 3.7 -13 2 C-8.71 2 -4.42 2 0 2 C0 1.34 0 0.68 0 0 Z " fill="#F86E03" transform="translate(622,235)"/>
<path d="M0 0 C3.63 0 7.26 0 11 0 C10.51203942 5.09647717 8.69361497 8.66704554 5.9375 12.875 C5.56044922 13.46796875 5.18339844 14.0609375 4.79492188 14.671875 C3.87215204 16.12027322 2.93729737 17.56096031 2 19 C-0.046875 17.484375 -0.046875 17.484375 -2 15 C-1.96426701 12.20091603 -1.76161786 9.95645849 -1.25 7.25 C-1.1365625 6.55261719 -1.023125 5.85523438 -0.90625 5.13671875 C-0.62422413 3.4210614 -0.31476752 1.70995326 0 0 Z " fill="#35281D" transform="translate(680,217)"/>
<path d="M0 0 C5.28 0 10.56 0 16 0 C11.31645873 5.64426769 6.3792354 11.0058046 1 16 C0.67 16 0.34 16 0 16 C0 10.72 0 5.44 0 0 Z " fill="#F86F03" transform="translate(679,138)"/>
<path d="M0 0 C0.33 0 0.66 0 1 0 C1 6.27 1 12.54 1 19 C-2.63 19 -6.26 19 -10 19 C-8.74835013 15.87087533 -7.69858563 13.28626875 -6.0546875 10.44921875 C-5.70019531 9.83369141 -5.34570312 9.21816406 -4.98046875 8.58398438 C-4.61566406 7.95814453 -4.25085938 7.33230469 -3.875 6.6875 C-3.50246094 6.04232422 -3.12992188 5.39714844 -2.74609375 4.73242188 C-1.83367787 3.15324055 -0.91724491 1.57638136 0 0 Z " fill="#7E4C24" transform="translate(706,198)"/>
<path d="M0 0 C2.58361518 -0.05407567 5.16609255 -0.093707 7.75 -0.125 C8.84441406 -0.15013672 8.84441406 -0.15013672 9.9609375 -0.17578125 C13.8044624 -0.21072239 16.74606772 -0.17499684 20 2 C19.34 2 18.68 2 18 2 C17.67 2.99 17.34 3.98 17 5 C14.625 7.6875 14.625 7.6875 12 10 C9 10 9 10 6.73828125 8.06640625 C5.93777344 7.24011719 5.13726563 6.41382813 4.3125 5.5625 C3.50425781 4.73878906 2.69601562 3.91507813 1.86328125 3.06640625 C0 1 0 1 0 0 Z " fill="#090603" transform="translate(643,169)"/>
<path d="M0 0 C0.93710107 2.98805464 1.13924694 3.68783203 -0.1953125 6.6796875 C-0.83210937 7.73414063 -1.46890625 8.78859375 -2.125 9.875 C-2.47320801 10.45781738 -2.82141602 11.04063477 -3.18017578 11.64111328 C-3.97977675 12.97945007 -4.78400921 14.31502602 -5.59179688 15.6484375 C-7.21128349 18.35282291 -8.78609327 21.08098493 -10.359375 23.8125 C-11.53086513 25.83355647 -12.70274014 27.8543899 -13.875 29.875 C-14.44621582 30.86870605 -15.01743164 31.86241211 -15.60595703 32.88623047 C-16.14591309 33.80807129 -16.68586914 34.72991211 -17.2421875 35.6796875 C-17.7254248 36.51226074 -18.20866211 37.34483398 -18.70654297 38.20263672 C-19.13338379 38.7957666 -19.56022461 39.38889648 -20 40 C-20.66 40 -21.32 40 -22 40 C-20.73004945 35.83168222 -19.16776406 32.26419022 -16.953125 28.515625 C-16.355 27.49726563 -15.756875 26.47890625 -15.140625 25.4296875 C-14.20476563 23.85574219 -14.20476563 23.85574219 -13.25 22.25 C-12.6415625 21.21617187 -12.033125 20.18234375 -11.40625 19.1171875 C-7.6382199 12.72441848 -3.82721159 6.3574826 0 0 Z " fill="#D0CFCF" transform="translate(706,194)"/>
<path d="M0 0 C2.93398127 2.93398127 4.63223794 5.54875784 6.6875 9.125 C7.31011719 10.20007813 7.93273437 11.27515625 8.57421875 12.3828125 C10 15 10 15 10 16 C6.7 16 3.4 16 0 16 C0 10.72 0 5.44 0 0 Z " fill="#814C23" transform="translate(607,212)"/>
<path d="M0 0 C0.66 0 1.32 0 2 0 C2.13277344 0.68707031 2.26554688 1.37414062 2.40234375 2.08203125 C2.57894531 2.98308594 2.75554688 3.88414062 2.9375 4.8125 C3.11152344 5.70582031 3.28554688 6.59914062 3.46484375 7.51953125 C3.97741153 10.11397171 3.97741153 10.11397171 5 13 C1.37 13 -2.26 13 -6 13 C-4.70639401 9.76598502 -3.44092886 6.7671601 -1.875 3.6875 C-1.52179687 2.99011719 -1.16859375 2.29273438 -0.8046875 1.57421875 C-0.53914062 1.05472656 -0.27359375 0.53523437 0 0 Z " fill="#5E3C22" transform="translate(634,224)"/>
<path d="M0 0 C8.25 0 16.5 0 25 0 C24.67 0.99 24.34 1.98 24 3 C16.41 3 8.82 3 1 3 C0.67 2.01 0.34 1.02 0 0 Z " fill="#D77C34" transform="translate(675,201)"/>
<path d="M0 0 C7.59 0 15.18 0 23 0 C23 0.99 23 1.98 23 3 C15.74 3 8.48 3 1 3 C0.67 2.01 0.34 1.02 0 0 Z " fill="#C88653" transform="translate(613,213)"/>
<path d="M0 0 C2.97 0 5.94 0 9 0 C7.35 3.3 5.7 6.6 4 10 C3.01 10 2.02 10 1 10 C-0.83691257 6.21812119 -1.15837626 4.05431692 0 0 Z " fill="#88562E" transform="translate(679,225)"/>
<path d="M0 0 C3.3 0 6.6 0 10 0 C10 3.63 10 7.26 10 11 C1.85911017 4.08792373 1.85911017 4.08792373 0 2 C0 1.34 0 0.68 0 0 Z " fill="#E96A07" transform="translate(697,138)"/>
<path d="M0 0 C3.17972225 3.75591353 5.68373101 7.70996576 8.0625 12 C10.83165149 16.94852889 10.83165149 16.94852889 13.74609375 21.8125 C15 24 15 24 15 26 C9.77271811 24.2575727 7.92842651 18.71576544 5.25 14.125 C4.63511719 13.10535156 4.02023437 12.08570313 3.38671875 11.03515625 C2.81050781 10.05675781 2.23429688 9.07835937 1.640625 8.0703125 C1.10985352 7.17070801 0.57908203 6.27110352 0.03222656 5.34423828 C-1 3 -1 3 0 0 Z " fill="#E37724" transform="translate(608,209)"/>
<path d="M0 0 C6.6 0 13.2 0 20 0 C20 0.99 20 1.98 20 3 C13.4 3 6.8 3 0 3 C0 2.01 0 1.02 0 0 Z " fill="#AC7143" transform="translate(687,233)"/>
<path d="M0 0 C6.6 0 13.2 0 20 0 C19.67 0.99 19.34 1.98 19 3 C12.73 3 6.46 3 0 3 C0 2.01 0 1.02 0 0 Z " fill="#DC6E18" transform="translate(678,205)"/>
<path d="M0 0 C6.27 0 12.54 0 19 0 C18.67 0.99 18.34 1.98 18 3 C12.39 3 6.78 3 1 3 C0.67 2.01 0.34 1.02 0 0 Z " fill="#DA7323" transform="translate(615,217)"/>
<path d="M0 0 C5.61 0 11.22 0 17 0 C17 0.99 17 1.98 17 3 C11.06 3 5.12 3 -1 3 C-0.67 2.01 -0.34 1.02 0 0 Z " fill="#C9844E" transform="translate(690,229)"/>
<path d="M0 0 C5.28 0 10.56 0 16 0 C16 0.99 16 1.98 16 3 C10.72 3 5.44 3 0 3 C0 2.01 0 1.02 0 0 Z " fill="#DC711E" transform="translate(679,209)"/>
<path d="M0 0 C0.99 0.33 1.98 0.66 3 1 C-2.66666667 6.66666667 -8.33333333 12.33333333 -14 18 C-14.66 17.67 -15.32 17.34 -16 17 C-12.49758013 12.4598261 -8.81842471 8.43782419 -4.3125 4.875 C-1.80846331 3.03438927 -1.80846331 3.03438927 0 0 Z " fill="#150C05" transform="translate(652,250)"/>
<path d="M0 0 C4.62 0 9.24 0 14 0 C13.67 0.99 13.34 1.98 13 3 C8.71 3 4.42 3 0 3 C0 2.01 0 1.02 0 0 Z " fill="#D47D39" transform="translate(679,213)"/>
<path d="M0 0 C4.62 0 9.24 0 14 0 C13.67 0.99 13.34 1.98 13 3 C9.04 3 5.08 3 1 3 C0.67 2.01 0.34 1.02 0 0 Z " fill="#CE7631" transform="translate(618,221)"/>
<path d="M0 0 C1.134375 0.020625 2.26875 0.04125 3.4375 0.0625 C2.18773244 3.71566671 1.76651247 4.84315836 -1.5625 7.0625 C-2.5525 5.0825 -3.5425 3.1025 -4.5625 1.0625 C-3.5625 0.0625 -3.5625 0.0625 0 0 Z " fill="#895731" transform="translate(625.5625,228.9375)"/>
<path d="M0 0 C3.63 0 7.26 0 11 0 C11 0.99 11 1.98 11 3 C7.37 3 3.74 3 0 3 C0 2.01 0 1.02 0 0 Z " fill="#B06E3A" transform="translate(608,233)"/>
<path d="M0 0 C3.3 0 6.6 0 10 0 C10 0.99 10 1.98 10 3 C6.37 3 2.74 3 -1 3 C-0.67 2.01 -0.34 1.02 0 0 Z " fill="#D4772E" transform="translate(697,217)"/>
<path d="M0 0 C3.63 0 7.26 0 11 0 C10.67 0.99 10.34 1.98 10 3 C6.7 3 3.4 3 0 3 C0 2.01 0 1.02 0 0 Z " fill="#DA6F1A" transform="translate(680,217)"/>
<path d="M0 0 C1.20577254 4.82309018 0.4840323 5.59880178 -1.9375 9.75 C-2.50339844 10.73484375 -3.06929687 11.7196875 -3.65234375 12.734375 C-4.09707031 13.48203125 -4.54179688 14.2296875 -5 15 C-5.66 14.01 -6.32 13.02 -7 12 C-4.69 8.04 -2.38 4.08 0 0 Z " fill="#CFCECE" transform="translate(706,194)"/>
<path d="M0 0 C3.3 0 6.6 0 10 0 C10 0.99 10 1.98 10 3 C7.03 3 4.06 3 1 3 C0.67 2.01 0.34 1.02 0 0 Z " fill="#BA6A2B" transform="translate(620,225)"/>
<path d="M0 0 C1.32 0 2.64 0 4 0 C4 1.98 4 3.96 4 6 C1.69 6 -0.62 6 -3 6 C-2.01 4.02 -1.02 2.04 0 0 Z " fill="#C66D27" transform="translate(703,206)"/>
<path d="M0 0 C2.97 0 5.94 0 9 0 C9.33 0.99 9.66 1.98 10 3 C7.03 3 4.06 3 1 3 C0.67 2.01 0.34 1.02 0 0 Z " fill="#CE8043" transform="translate(607,229)"/>
<path d="M0 0 C0.66 0.99 1.32 1.98 2 3 C1.05065487 4.67180274 0.09026687 6.33733936 -0.875 8 C-1.40867187 8.928125 -1.94234375 9.85625 -2.4921875 10.8125 C-2.98976563 11.534375 -3.48734375 12.25625 -4 13 C-4.66 13 -5.32 13 -6 13 C-4.58707905 8.1725201 -2.57025846 4.2837641 0 0 Z " fill="#D9B293" transform="translate(690,221)"/>
<path d="M0 0 C0.99 0.33 1.98 0.66 3 1 C3 1.99 3 2.98 3 4 C3.66 4 4.32 4 5 4 C5.33 4.99 5.66 5.98 6 7 C4.02 7 2.04 7 0 7 C0 4.69 0 2.38 0 0 Z " fill="#C9681C" transform="translate(607,217)"/>
<path d="M0 0 C6.28378378 7.75 6.28378378 7.75 6 13 C3.36113331 9.81516089 0.85505895 6.7101179 -1 3 C-0.67 2.01 -0.34 1.02 0 0 Z " fill="#DCA071" transform="translate(608,209)"/>
<path d="M0 0 C0.33 0 0.66 0 1 0 C1 2.64 1 5.28 1 8 C-0.32 8 -1.64 8 -3 8 C-3.33 8.99 -3.66 9.98 -4 11 C-4.33 10.34 -4.66 9.68 -5 9 C-4.00390625 6.8359375 -4.00390625 6.8359375 -2.5625 4.375 C-2.08941406 3.55773437 -1.61632812 2.74046875 -1.12890625 1.8984375 C-0.75636719 1.27195313 -0.38382813 0.64546875 0 0 Z " fill="#543F2F" transform="translate(706,198)"/>
<path d="M0 0 C2.64 0 5.28 0 8 0 C8 0.99 8 1.98 8 3 C5.36 3 2.72 3 0 3 C0 2.01 0 1.02 0 0 Z " fill="#CF752E" transform="translate(680,221)"/>
<path d="M0 0 C1.98 0 3.96 0 6 0 C6.33 0.99 6.66 1.98 7 3 C4.36 3 1.72 3 -1 3 C-0.67 2.01 -0.34 1.02 0 0 Z " fill="#B26E39" transform="translate(631,233)"/>
<path d="M0 0 C0.33 0.99 0.66 1.98 1 3 C-0.9375 6.1875 -0.9375 6.1875 -3 9 C-3.33 8.01 -3.66 7.02 -4 6 C-2.0625 2.8125 -2.0625 2.8125 0 0 Z " fill="#DADADA" transform="translate(699,207)"/>
</svg>
